<svg width="71" height="47" viewBox="0 0 71 47" fill="none" xmlns="http://www.w3.org/2000/svg">
<path d="M69.0237 46.5002C69.576 46.5002 70.0237 46.0525 70.0237 45.5002C70.0237 44.9479 69.576 44.5002 69.0237 44.5002V45.5002V46.5002ZM6.02636 0.135657C5.5489 -0.14193 4.93682 0.0200953 4.65923 0.497547L0.135671 8.27813C-0.141916 8.75558 0.0201088 9.36767 0.497565 9.64526C0.97502 9.92284 1.5871 9.76082 1.86469 9.28337L5.88563 2.36729L12.8017 6.38823C13.2792 6.66582 13.8912 6.5038 14.1688 6.02634C14.4464 5.54889 14.2844 4.9368 13.8069 4.65922L6.02636 0.135657ZM69.0237 45.5002V44.5002C53.0571 44.5002 38.5207 37.7421 27.3985 28.8443C16.2532 19.9281 8.66819 8.97118 6.49044 0.74427L5.52374 1.00017L4.55704 1.25606C6.87936 10.0292 14.7944 21.3223 26.1491 30.406C37.5268 39.5082 52.4904 46.5002 69.0237 46.5002V45.5002Z" fill="white"/>
</svg>
